<svg xmlns="http://www.w3.org/2000/svg" viewBox="0 0 15.31 15.31"><defs><style>.cls-1{fill:#6b6f7a;}</style></defs><title>Asset 12</title><g id="Layer_2" data-name="Layer 2"><g id="Layer_2-2" data-name="Layer 2"><path class="cls-1" d="M15.26,6.8a.51.51,0,0,0-.49-.37,1.69,1.69,0,0,1-1.16-2.94.44.44,0,0,0,.05-.58,7.47,7.47,0,0,0-1.22-1.23.42.42,0,0,0-.58.05A1.76,1.76,0,0,1,10,2.16,1.7,1.7,0,0,1,8.92.5.43.43,0,0,0,8.54.05a7.07,7.07,0,0,0-1.72,0,.42.42,0,0,0-.38.43A1.7,1.7,0,0,1,5.39,2.12,1.78,1.78,0,0,1,3.5,1.69a.42.42,0,0,0-.58-.05A8,8,0,0,0,1.68,2.86a.42.42,0,0,0,.05.58,1.7,1.7,0,0,1,.43,1.91,1.78,1.78,0,0,1-1.67,1,.41.41,0,0,0-.44.37,7.23,7.23,0,0,0,0,1.74.5.5,0,0,0,.5.38,1.65,1.65,0,0,1,1.57,1,1.7,1.7,0,0,1-.42,1.89.42.42,0,0,0-.05.58,7.76,7.76,0,0,0,1.21,1.22.43.43,0,0,0,.58,0,1.75,1.75,0,0,1,1.91-.43,1.69,1.69,0,0,1,1,1.66.41.41,0,0,0,.37.44,6.51,6.51,0,0,0,.88.06,7.89,7.89,0,0,0,.84-.05.43.43,0,0,0,.38-.44,1.71,1.71,0,0,1,1.05-1.63,1.75,1.75,0,0,1,1.89.43.44.44,0,0,0,.58.05,7.22,7.22,0,0,0,1.24-1.23.42.42,0,0,0,0-.58,1.69,1.69,0,0,1,1.14-2.94h.1a.41.41,0,0,0,.44-.38A7.78,7.78,0,0,0,15.26,6.8Zm-7.6,3.42a2.55,2.55,0,1,1,2.56-2.55A2.55,2.55,0,0,1,7.66,10.22Z"/></g></g></svg>